<svg width="800" height="800" viewBox="0 0 800 800" fill="none" xmlns="http://www.w3.org/2000/svg">
<g clip-path="url(#clip0_111_2)">
<path d="M721.313 231.25C736.313 224.813 766.938 225.906 773 249.375C779.063 272.844 774.125 294.781 749.906 299.719C725.688 304.656 710.156 295.938 703.344 278.156C696.531 260.375 701.781 239.625 721.313 231.25Z" fill="#191919"/>
<path d="M737.281 326.063C710.437 326.063 689.656 312.219 680.031 287.094C667.781 255.094 681.281 221.219 711.469 208.281C720.733 204.532 730.664 202.706 740.657 202.916C750.649 203.125 760.494 205.366 769.594 209.5C776.379 212.742 782.369 217.433 787.142 223.243C791.916 229.053 795.355 235.84 797.219 243.125C802.906 265 800.937 284.75 791.5 299.813C787.428 306.197 782.072 311.665 775.771 315.867C769.471 320.068 762.366 322.913 754.906 324.219C749.108 325.421 743.203 326.039 737.281 326.063ZM739.406 252.875C736.597 252.806 733.799 253.262 731.156 254.219C723.062 257.688 725.719 266.563 726.719 269.188C728.25 273.219 730.156 278.188 744.938 275.188C746.497 275.035 747.961 274.364 749.094 273.281C750.125 271.625 751.406 265.781 748.781 255.594C748.781 255.031 748.594 254.875 747.531 254.344C744.959 253.28 742.188 252.779 739.406 252.875Z" fill="#191919"/>
<path d="M154.594 91.4687C154.313 143.5 147.5 658.906 147.5 696.375C147.5 733.844 166.031 773.281 221.5 748.437C276.969 723.594 686.563 461.937 709.969 438.375C733.375 414.812 745.844 386.844 710.656 354.281C675.469 321.719 259.031 62.125 227.094 50C195.156 37.875 154.875 39.4687 154.594 91.4687Z" fill="#191919"/>
<path d="M190.281 781.25C178.113 781.418 166.163 778.017 155.906 771.469C134.719 757.75 122.562 730.406 122.562 696.469C122.562 676.375 124.469 521.875 126.344 372.469C127.969 240.406 129.469 115.687 129.656 91.4062C129.781 56.25 144.812 38.5937 157.406 29.9375C177.156 16.375 205.781 15.1875 235.969 26.625C275.875 41.7812 693.969 304.75 727.594 336C747 353.969 757.062 373.5 757.5 393.812C757.937 415.031 748.125 435.375 727.687 456.062C699.562 484.187 287.062 746.531 231.687 771.344C218.742 777.538 204.629 780.914 190.281 781.25ZM196.344 68.75C192.645 68.5211 188.958 69.3561 185.719 71.1562C180.469 74.75 179.625 85.5 179.469 91.5937C179.469 116.031 177.781 240.844 176.156 372.844C174.312 522.125 172.375 676.469 172.375 696.219C172.375 711.844 176.625 725.187 182.906 729.281C188.031 732.594 198.344 731.219 211.031 725.5C266.125 700.844 668.187 443 692.094 420.5C702.281 410.25 707.438 401.5 707.281 394.687C707.125 386.812 699.656 378.281 693.406 372.5C658.5 340.187 246.969 85 217.937 73.2187C211.058 70.4737 203.748 68.9611 196.344 68.75Z" fill="#191919"/>
<path d="M154.594 91.4687C154.313 143.5 147.5 658.906 147.5 696.375C147.5 733.844 166.031 773.281 221.5 748.437C276.969 723.594 686.563 461.937 709.969 438.375C733.375 414.812 745.844 386.844 710.656 354.281C675.469 321.719 259.031 62.125 227.094 50C195.156 37.875 154.875 39.4687 154.594 91.4687Z" fill="white"/>
<path d="M185.156 392.406C182.031 389.281 181.156 384.938 184.719 382.531C188.281 380.125 205.625 360.656 205.625 335.281C205.625 302.531 182.094 265.219 133.563 265.219C64.25 265.219 47.1875 315.469 43.2188 331.781C39.25 348.094 90.0937 353.656 92.3437 341.156C94.7187 328.062 108.25 308.687 126.094 309.062C141.469 309.375 156.375 321.562 156.375 344.312C156.375 367.062 123.031 370.688 114.125 372.25C103.812 374.031 105.375 409.344 113.781 409.531C122.187 409.719 161.312 410.094 161.312 445.625C161.312 470.938 141.469 480.875 126.094 480.875C104.656 480.875 88.9063 461.875 86.5625 448.781C84.3125 436.281 33.4375 441.906 37.4375 458.156C41.4375 474.406 59.3125 524 128.625 524C185.437 524 208.531 484.031 208.531 445.875C208.5 417.437 188.188 395.437 185.156 392.406Z" fill="#191919"/>
<path d="M128.594 549.062C82.7188 549.062 55.2813 530.312 40.3438 514.437C27.1321 500.26 17.7627 482.941 13.125 464.125C11.7404 458.296 11.9687 452.2 13.7854 446.491C15.6022 440.782 18.9388 435.675 23.4375 431.719C39.3438 417.125 70.5 413.75 88.5313 419.812H88.875C84.7887 412.65 82.4743 404.614 82.125 396.375C81.3776 388.265 82.1297 380.087 84.3438 372.25C66.3125 374.656 42.4375 370.281 29.1875 358.125C24.6936 354.196 21.3496 349.122 19.5115 343.443C17.6735 337.763 17.4103 331.692 18.75 325.875C23.6563 305.781 46.375 240.219 133.375 240.219C196.438 240.219 230.437 289.187 230.437 335.281C230.101 353.997 224.169 372.184 213.406 387.5C222.344 400 233.5 420.719 233.5 445.906C233.893 471.375 225.083 496.131 208.688 515.625C195.438 530.937 170.781 549.062 128.594 549.062ZM106.969 433.437C109.07 436.719 110.503 440.383 111.188 444.219C111.906 447.125 118.156 455.75 126.125 455.75C132.906 455.75 136.344 452.312 136.344 445.5C136.344 441.25 136.344 434.812 113.594 434.406C111.35 434.387 109.115 434.104 106.938 433.562L106.969 433.437ZM146.656 389.687C148.073 390.187 149.49 390.74 150.906 391.344C153.596 392.491 156.206 393.816 158.719 395.312C157.687 391.786 157.285 388.104 157.531 384.437C154.044 386.515 150.397 388.313 146.625 389.812L146.656 389.687ZM125.594 333.969C123.156 334.437 117.75 341.062 116.969 345.5L116.813 346.375C121.808 345.767 126.679 344.386 131.25 342.281C131 338.906 129.813 334.187 125.563 334.094L125.594 333.969ZM162.719 298.719C172.395 308.345 178.67 320.863 180.594 334.375C180.455 327.476 178.778 320.695 175.685 314.527C172.593 308.359 168.163 302.958 162.719 298.719Z" fill="#191919"/>
<path d="M409.125 370.156C387.094 353.625 355.594 353.469 354.031 348.813C353.25 346.469 372.781 320.406 380.281 312.156C387.781 303.906 417.781 274.094 414.656 270.938C408.719 264.688 372.125 261.563 362.313 266.188C352.5 270.813 269.094 354.344 263.156 428.688C257.219 503.031 313.438 520.875 350.094 522.688C386.75 524.5 422.938 508.375 436.688 464.5C451.125 418.375 427.938 384.375 409.125 370.156ZM352.156 479.313C324.031 479.844 313 458.906 312.375 439.813C311.594 416.063 325.813 397.719 350.594 396.688C375.375 395.656 391.906 414 390.875 436.719C390 455.813 380.281 478.781 352.125 479.313H352.156Z" fill="#191919"/>
<path d="M355.844 547.844C353.531 547.844 351.219 547.844 348.844 547.656C327.844 546.625 288.656 540.406 262.25 510.375C243.5 489.125 235.469 460.969 238.219 426.719C245.094 340.688 335.5 251.219 351.594 243.594C362.781 238.281 379.719 238.5 392.219 239.594C421.844 242.219 429.719 250.531 432.844 253.625C450.219 271.75 432.375 292.344 424.781 301.156C418.531 308.5 410.469 316.781 404.656 323.031C402.219 325.563 400.188 327.688 398.875 329.281C397.563 330.875 395.75 332.75 394.031 335.031C404.866 338.519 415.077 343.709 424.281 350.406C454.344 372.937 477.25 419.344 460.688 472.281C445.5 519.875 406.656 547.844 355.844 547.844ZM289.938 458.156C290.271 459.448 290.646 460.708 291.063 461.938C290.667 460.688 290.292 459.427 289.938 458.156ZM415.406 426.219C415.878 430.075 416.025 433.963 415.844 437.844C415.587 443.932 414.686 449.976 413.156 455.875C416.175 446.294 416.945 436.146 415.406 426.219ZM352.563 421.656H351.594C347.938 421.656 336.781 422.25 337.344 439C337.5 444.062 337.75 454.625 351.656 454.344C355.313 454.344 365.031 454.094 365.875 435.594C366.165 433.752 366.026 431.868 365.47 430.088C364.913 428.308 363.954 426.681 362.666 425.333C361.378 423.984 359.796 422.951 358.044 422.313C356.292 421.676 354.416 421.451 352.563 421.656ZM333.531 333.219C314.781 358.063 295.531 389.469 289.625 419.469C292.68 406.97 299.517 395.72 309.204 387.252C318.891 378.784 330.956 373.512 343.75 372.156C340.58 370.625 337.752 368.468 335.437 365.815C333.123 363.162 331.369 360.068 330.281 356.719C327.469 348.156 329.281 340.906 333.563 333.219H333.531Z" fill="#191919"/>
<path d="M586.312 266.406C538.812 267.937 496.156 300.187 495.125 391.625C494.094 483.062 534.25 524.469 588.875 525.219C643.5 525.969 683.344 477.969 682.094 389.594C680.844 301.219 635.062 264.844 586.312 266.406ZM626.687 394.531C625.156 465.125 607.063 482.031 588.344 482.031C569.625 482.031 548.969 458.656 550.5 394.531C552.094 326.937 571.563 310.469 587.844 309.969C604.125 309.469 628.125 330.688 626.687 394.688V394.531Z" fill="#191919"/>
<path d="M590.156 550.219H588.531C560.406 549.813 468.531 537.219 470.156 391.344C470.688 342.875 482.156 305.094 504.281 279.094C524.344 255.5 552.438 242.469 585.531 241.406C599.961 240.814 614.362 243.122 627.883 248.195C641.405 253.267 653.771 261.001 664.25 270.937C683.281 289.094 706.156 324.375 707.094 389.219C707.906 445.938 693.25 491.031 664.719 519.562C654.986 529.418 643.368 537.212 630.557 542.479C617.747 547.746 604.006 550.378 590.156 550.219ZM548.344 305.312C530.063 320.937 520.594 349.969 520.219 391.906C519.938 418.031 523.344 455.719 542.75 479.063C530.469 459.531 524.719 431.031 525.594 394.062C526.438 358.937 531.844 333.062 541.969 314.969C543.831 311.584 545.963 308.355 548.344 305.312ZM630.469 307.906C641.813 322.844 652.688 349.219 651.688 395.219C650.906 431.094 646 457.375 636.688 475.437C650.406 456 657.594 426.219 657.063 389.937C656.531 352.937 647.344 324.594 630.469 307.906ZM588.313 335.594C585.75 338.187 576.531 350.625 575.469 395.281C574.406 440.469 585.719 455.406 588.969 457.062H589.156C589.156 457.062 600.5 448.656 601.656 394.187C602.563 353.969 592.563 338.906 588.344 335.562L588.313 335.594Z" fill="#191919"/>
<path d="M185.156 392.406C182.031 389.281 181.156 384.938 184.719 382.531C188.281 380.125 205.625 360.656 205.625 335.281C205.625 302.531 182.094 265.219 133.563 265.219C64.25 265.219 47.1875 315.469 43.2188 331.781C39.25 348.094 90.0937 353.656 92.3437 341.156C94.7187 328.062 108.25 308.687 126.094 309.062C141.469 309.375 156.375 321.562 156.375 344.312C156.375 367.062 123.031 370.688 114.125 372.25C103.812 374.031 105.375 409.344 113.781 409.531C122.187 409.719 161.312 410.094 161.312 445.625C161.312 470.938 141.469 480.875 126.094 480.875C104.656 480.875 88.9063 461.875 86.5625 448.781C84.3125 436.281 33.4375 441.906 37.4375 458.156C41.4375 474.406 59.3125 524 128.625 524C185.437 524 208.531 484.031 208.531 445.875C208.5 417.437 188.188 395.437 185.156 392.406Z" fill="#2ABAE8"/>
<path d="M409.125 370.156C387.094 353.625 355.594 353.469 354.031 348.813C353.25 346.469 372.781 320.406 380.281 312.156C387.781 303.906 417.781 274.094 414.656 270.938C408.719 264.688 372.125 261.563 362.313 266.188C352.5 270.813 269.094 354.344 263.156 428.688C257.219 503.031 313.438 520.875 350.094 522.688C386.75 524.5 422.938 508.375 436.688 464.5C451.125 418.375 427.938 384.375 409.125 370.156ZM352.156 479.313C324.031 479.844 313 458.906 312.375 439.813C311.594 416.063 325.813 397.719 350.594 396.688C375.375 395.656 391.906 414 390.875 436.719C390 455.813 380.281 478.781 352.125 479.313H352.156Z" fill="#2ABAE8"/>
<path d="M586.312 266.406C538.812 267.938 496.156 300.188 495.125 391.625C494.094 483.063 534.25 524.469 588.875 525.219C643.5 525.969 683.344 477.969 682.094 389.594C680.844 301.219 635.062 264.844 586.312 266.406ZM626.687 394.531C625.156 465.125 607.063 482.031 588.344 482.031C569.625 482.031 548.969 458.656 550.5 394.531C552.094 326.938 571.563 310.469 587.844 309.969C604.125 309.469 628.125 330.688 626.687 394.688V394.531Z" fill="#2ABAE8"/>
<path d="M721.313 231.25C736.313 224.812 766.938 225.906 773 249.375C779.063 272.844 774.125 294.781 749.906 299.719C725.688 304.656 710.156 295.937 703.344 278.156C696.531 260.375 701.781 239.625 721.313 231.25Z" fill="#2ABAE8"/>
</g>
<defs>
<clipPath id="clip0_111_2">
<rect width="800" height="800" fill="white"/>
</clipPath>
</defs>
</svg>
