<svg width="32" height="32" viewBox="0 0 32 32" fill="none" xmlns="http://www.w3.org/2000/svg">
<path d="M27 2H5C3.3 2 2 3.3 2 5V7C2 7.6 2.4 8 3 8V20C3 21.7 4.3 23 6 23H13.8L8.3 29.3C7.9 29.7 8 30.3 8.4 30.7C8.5 30.9 8.8 31 9 31C9.3 31 9.6 30.9 9.8 30.7L15 24.7V29C15 29.6 15.4 30 16 30C16.6 30 17 29.6 17 29V24.7L22.2 30.7C22.4 30.9 22.7 31 23 31C23.2 31 23.5 30.9 23.7 30.8C24.1 30.4 24.2 29.8 23.8 29.4L18.2 23H26C27.7 23 29 21.7 29 20V8C29.6 8 30 7.6 30 7V5C30 3.3 28.7 2 27 2ZM27 20C27 20.6 26.6 21 26 21H6C5.4 21 5 20.6 5 20V8H27V20Z" fill="black"/>
<path d="M13 10V14H17C16.5897 11.9487 15.0513 10.4103 13 10Z" fill="#595959"/>
<path d="M12.5455 19C14.7273 19 16.5455 17.4545 17 15.3636H12.5455C12 15.3636 11.6364 15 11.6364 14.4545V10C9.54545 10.4545 8 12.2727 8 14.4545C8 17 10 19 12.5455 19Z" fill="#595959"/>
<path d="M20 14H23C23.6 14 24 13.6 24 13C24 12.4 23.6 12 23 12H20C19.4 12 19 12.4 19 13C19 13.6 19.4 14 20 14Z" fill="#595959"/>
<path d="M20 17H23C23.6 17 24 16.6 24 16C24 15.4 23.6 15 23 15H20C19.4 15 19 15.4 19 16C19 16.6 19.4 17 20 17Z" fill="#595959"/>
</svg>
