<svg width="800" height="800" viewBox="0 0 800 800" fill="none" xmlns="http://www.w3.org/2000/svg">
<path d="M74.1188 473.134C115.091 473.134 148.208 439.953 148.208 399.016C148.208 358.091 115.091 324.895 74.1188 324.895C33.1813 324.894 0 358.091 0 399.016C0 439.953 33.1813 473.134 74.1188 473.134Z" fill="black"/>
<path d="M74.0406 498.414C34.1875 498.414 1.65938 530.725 1.65938 570.78V660.761H87.4031L142.728 547.748C133.247 518.916 106.166 498.414 74.0406 498.414Z" fill="black"/>
<path d="M195.37 331.428C232.058 331.428 261.747 301.725 261.747 265.022C261.747 228.381 232.058 198.631 195.37 198.631C158.698 198.631 128.98 228.381 128.98 265.022C128.98 301.725 158.7 331.428 195.37 331.428Z" fill="black"/>
<path d="M130.361 485.255V499.564H166.334L232.136 365.463C221.692 358.106 209.106 354.056 195.37 354.056C186.089 354.056 177.183 355.98 169.253 359.472C174.281 371.669 177.183 385 177.183 398.952C177.183 435.144 158.606 466.864 130.361 485.255Z" fill="black"/>
<path d="M392.17 202.852C428.858 202.852 458.561 173.148 458.561 136.445C458.561 99.8047 428.858 70.0547 392.17 70.0547C355.498 70.0547 325.78 99.8047 325.78 136.445C325.78 173.148 355.498 202.852 392.17 202.852Z" fill="black"/>
<path d="M392.17 225.431C356.32 225.431 327.206 254.516 327.206 290.411V318.577H457.133V290.411C457.134 254.516 428.066 225.431 392.17 225.431Z" fill="black"/>
<path d="M275.233 343.548L103.808 693.352V729.947H696.192V693.352L524.767 343.548H275.233Z" fill="#515151"/>
<path d="M725.88 473.134C766.82 473.134 800 439.953 800 399.016C800 358.091 766.82 324.895 725.88 324.895C684.909 324.895 651.791 358.092 651.791 399.016C651.791 439.953 684.909 473.134 725.88 473.134Z" fill="black"/>
<path d="M725.958 498.414C693.833 498.414 666.752 518.916 657.269 547.75L712.595 660.763H798.339V570.781C798.339 530.725 765.811 498.414 725.958 498.414Z" fill="black"/>
<path d="M604.628 331.428C641.302 331.428 671.02 301.725 671.02 265.022C671.02 228.381 641.302 198.631 604.628 198.631C567.941 198.631 538.253 228.381 538.253 265.022C538.253 301.725 567.941 331.428 604.628 331.428Z" fill="black"/>
<path d="M604.628 354.056C590.895 354.056 578.309 358.106 567.864 365.463L633.666 499.564H669.641V485.255C641.394 466.864 622.819 435.144 622.819 398.952C622.819 385 625.72 371.669 630.748 359.472C622.817 355.978 613.909 354.056 604.628 354.056Z" fill="black"/>
</svg>
