<svg width="751" height="800" viewBox="0 0 751 800" fill="none" xmlns="http://www.w3.org/2000/svg">
<path d="M417.682 257.031C409.774 239.042 391.835 216.876 350.397 235.091L313.881 251.144L279.086 171.992C258.13 124.32 206.104 120.795 179.694 146C160.574 164.248 151.878 193.338 164.455 221.947L287.86 504.432C257.803 481.667 200.396 481.923 174.7 508.385L175.371 507.37C148.079 535.477 152.649 575.316 194.063 610.124L415.067 784.063L731.675 644.879L733.398 617.292C737.879 545.514 725.116 473.706 696.174 407.869L672.209 353.354C670.966 350.529 669.607 347.767 668.136 345.079C651.422 314.522 614.013 301.926 582.074 315.815L558.282 326.161L531.395 264.997C519.628 238.229 488.259 226.052 461.575 238.014L417.682 257.031Z" fill="#EEE632"/>
<path d="M710.765 401.456L686.8 346.943C685.382 343.714 683.806 340.513 682.118 337.432C672.123 319.155 655.72 305.396 635.934 298.686C616.209 292 594.828 292.892 575.72 301.201L566.485 305.217L554.684 278.373C554.683 278.369 554.681 278.365 554.679 278.361L545.985 258.584C538.555 241.686 524.968 228.72 507.726 222.079C490.569 215.472 471.905 215.952 455.157 223.428L424.515 236.702C418.847 228.639 411.962 222.486 403.935 218.331C387.169 209.654 366.998 210.384 343.981 220.503L322.055 230.141L293.672 165.577C282.118 139.294 260.675 121.259 234.842 116.095C210.557 111.241 185.83 118.111 168.691 134.47C142.971 159.015 135.581 195.869 149.851 228.326L257.366 474.438C248.364 472.616 238.877 471.783 229.25 472.017C204.244 472.634 181.76 480.586 166.705 493.993C165.717 494.634 164.788 495.392 163.937 496.269C148.807 511.85 141.349 530.698 142.364 550.772C143.634 575.861 157.965 600.602 183.808 622.323C183.938 622.433 184.071 622.541 184.206 622.647L405.212 796.586C408.071 798.838 411.553 800 415.07 800C417.24 800 419.424 799.557 421.481 798.651L738.09 659.469C743.548 657.071 747.21 651.824 747.581 645.874L749.304 618.285C753.926 544.299 740.6 469.321 710.765 401.456ZM581.655 418.921C584.279 424.892 590.122 428.447 596.252 428.447C598.394 428.447 600.571 428.014 602.657 427.096C610.714 423.555 614.375 414.151 610.832 406.094L579.312 334.393L588.431 330.428C613.079 319.708 641.339 329.292 654.158 352.729C655.406 355.01 656.571 357.376 657.621 359.767L681.588 414.282C709.382 477.51 721.8 547.367 717.495 616.299L716.377 634.197L417.411 765.627L204.128 597.764C185.623 582.153 174.996 564.898 174.2 549.161C173.683 538.959 177.18 529.458 184.6 520.878C185.135 520.452 185.648 519.988 186.136 519.486C205.213 499.839 252.788 498.481 277.632 516.701L332.528 569.424C335.618 572.392 339.594 573.867 343.565 573.867C347.752 573.867 351.932 572.227 355.062 568.97C361.159 562.623 360.955 552.533 354.608 546.436L301.196 495.136L179.047 215.531C168.343 191.18 178.048 169.601 190.702 157.526C200.189 148.471 214.711 144.572 228.601 147.349C244.33 150.494 257.079 161.522 264.501 178.403L357.027 388.876C359.651 394.847 365.494 398.403 371.624 398.403C373.766 398.403 375.943 397.969 378.029 397.051C386.087 393.509 389.747 384.106 386.204 376.049L334.888 259.318L356.816 249.678C370.579 243.63 381.506 242.605 389.293 246.635C394.804 249.488 399.449 255.142 403.098 263.442L457.664 387.566C460.289 393.537 466.131 397.093 472.262 397.093C474.404 397.093 476.581 396.659 478.667 395.741C486.724 392.199 490.385 382.796 486.842 374.739L438.724 265.281L467.919 252.632C467.981 252.605 468.042 252.58 468.102 252.551C477.067 248.533 487.073 248.272 496.279 251.818C505.537 255.383 512.829 262.339 516.815 271.407L581.655 418.921Z" fill="white"/>
<path d="M645.567 649.501C639.432 649.501 633.586 645.939 630.965 639.961C627.43 631.901 631.097 622.502 639.157 618.967L654.879 612.071C662.941 608.535 672.34 612.204 675.873 620.264C679.408 628.325 675.741 637.724 667.68 641.259L651.959 648.154C649.878 649.069 647.704 649.501 645.567 649.501Z" fill="white"/>
<path d="M429.983 744.412C423.847 744.412 418.002 740.851 415.381 734.873C411.846 726.812 415.513 717.413 423.573 713.879L591.467 640.24C599.53 636.706 608.928 640.374 612.461 648.433C615.996 656.494 612.329 665.893 604.268 669.428L436.375 743.067C434.294 743.98 432.12 744.412 429.983 744.412Z" fill="white"/>
<path d="M193.108 84.7438C185.707 84.7438 179.073 79.5598 177.518 72.0267L166.601 19.1598C164.821 10.5398 170.365 2.10957 178.985 0.33108C187.602 -1.44422 196.036 4.09682 197.814 12.7151L208.73 65.5821C210.51 74.202 204.966 82.6323 196.346 84.4124C195.261 84.6355 194.176 84.7438 193.108 84.7438Z" fill="white"/>
<path d="M26.9311 82.3088C24.0674 82.3088 21.1686 81.5375 18.555 79.9183L7.54787 73.1024C0.0657952 68.4681 -2.24496 58.6466 2.3909 51.163C7.02516 43.6793 16.8467 41.3701 24.3303 46.006L35.3375 52.8219C42.8196 57.4562 45.1303 67.2777 40.4945 74.7614C37.4793 79.6299 32.265 82.3088 26.9311 82.3088Z" fill="white"/>
<path d="M114.179 140.114C111.173 140.114 108.136 139.267 105.436 137.491L71.4411 115.131C64.0881 110.294 62.0467 100.412 66.8833 93.0594C71.72 85.7064 81.6005 83.665 88.955 88.5016L122.952 110.862C130.305 115.698 132.346 125.581 127.51 132.933C124.447 137.588 119.363 140.114 114.179 140.114Z" fill="white"/>
<path d="M44.6522 246C37.2514 246 30.6172 240.816 29.0618 233.282C27.2817 224.663 32.8259 216.232 41.4459 214.454L94.3128 203.537C102.936 201.761 111.363 207.303 113.143 215.922C114.923 224.541 109.379 232.972 100.759 234.752L47.8921 245.668C46.8052 245.891 45.72 246 44.6522 246Z" fill="white"/>
<path d="M114.792 372.333C111.787 372.333 108.749 371.485 106.05 369.71C98.6969 364.873 96.6554 354.991 101.492 347.638L131.156 302.537C135.991 295.184 145.873 293.141 153.228 297.979C160.581 302.816 162.622 312.698 157.785 320.051L128.122 365.152C125.06 369.807 119.977 372.333 114.792 372.333Z" fill="white"/>
<path d="M343.448 180.333C336.047 180.333 329.412 175.149 327.857 167.617C326.077 158.997 331.621 150.567 340.241 148.787L375.486 141.509C384.107 139.729 392.536 145.273 394.316 153.893C396.096 162.513 390.552 170.943 381.932 172.723L346.687 180.001C345.599 180.224 344.515 180.333 343.448 180.333Z" fill="white"/>
<path d="M442.574 159.864C435.173 159.864 428.539 154.68 426.984 147.149C425.204 138.529 430.748 130.098 439.368 128.318L450.383 126.044C459.008 124.266 467.433 129.81 469.213 138.428C470.993 147.048 465.449 155.479 456.829 157.259L445.814 159.533C444.727 159.756 443.642 159.864 442.574 159.864Z" fill="white"/>
<path d="M288.077 101.399C285.071 101.399 282.034 100.551 279.334 98.7757C271.981 93.939 269.94 84.057 274.777 76.704L304.44 31.6028C309.275 24.2498 319.157 22.2068 326.512 27.045C333.865 31.8817 335.906 41.7637 331.07 49.1167L301.406 94.2179C298.346 98.8729 293.261 101.399 288.077 101.399Z" fill="white"/>
</svg>
